<?xml version="1.0" encoding="utf-8"?>
<!-- Generator: Adobe Illustrator 23.0.0, SVG Export Plug-In . SVG Version: 6.00 Build 0)  -->
<svg version="1.1" id="Capa_1" xmlns="http://www.w3.org/2000/svg" xmlns:xlink="http://www.w3.org/1999/xlink" x="0px" y="0px"
	 viewBox="0 0 841.9 595.3" style="enable-background:new 0 0 841.9 595.3;" xml:space="preserve">
<style type="text/css">
	.st0{fill:#010101;}
</style>
<g>
	<g>
		<path class="st0" d="M313.2,53.5c71.9-1.2,144.2-0.1,216.3-1.1c11,0,20.9,5.1,23.7,16.9c3,12.9,5.9,25.8,9,38.7
			c7-0.2,15,2,18.3,8.6c3.1,12.4,6.4,25,6.8,37.8c-2.4,10.7-14.1,14.9-24,13.2c-2.2,20.9-4.3,41.9-6.3,62.8c8.6,4.7,9.9,13.2,9.7,22
			c-0.1,4.9-16.8,167.2-22.1,203.9c-2.5,17.7-7.5,18.1-12.6,22.3c-0.9,10.6-3.4,42.4-4,48.1c-0.8,7.1-2.8,13.6-10.4,16.1
			c-61.4,12.5-124.8,10.3-186.5,1.3c-7.4-1.1-10.7-8-11.1-15.9c-0.8-11.1-4-36.4-5.1-48.7c-8.8-5.4-11.8-14.5-13.1-24.2
			c-0.8-5.6-19.6-169.6-21-178.6c-1.1-15-7.3-34.3,7.6-44.8c-1.9-21-4.3-41.9-6.8-62.8c-11.4,2.9-25-5-23.5-17.8
			c1.6-10.9,3.3-21.8,6.1-32.4c2.6-8.9,9-10.2,18.4-9.5c2.4-9.1,4-18.5,6.5-27.5C289.6,68.4,298.2,53.3,313.2,53.5z M314.5,70.7
			c-3.2-0.5-5.3,2.3-6.1,5c-2,7.2-6.6,29.2-7.4,32.9c81.2-0.1,162.3,0,243.5-0.6c-2.6-11.7-5.6-23.4-8-35.1
			c-1.2-3.9-6.6-3.4-12.2-3.3C454.3,69.4,384.4,70.5,314.5,70.7z M280,127c-1.1,8.3-3.4,16.3-4.2,24.6c98-0.2,196.1,0,294-1.3
			c-1.3-7.2-4.3-23.6-4.4-24.6C474.5,125.9,284.2,126.8,280,127z M299.4,170.2c1.7,19.7,4,39.3,6.2,59c40.6,3.9,81.3,4.7,122.1,4.5
			c10.1,0,72.4-1.6,112.5-5.6c1.4-3.4,4.7-42.5,6-58.5C463.9,169.9,381.7,169.7,299.4,170.2z M295.6,259.1
			c0.2,12.8,22.3,194.6,23.1,198.2c-0.2,8.2,9.4,9,15,10.5c45.6,14.2,128.8,10,184.5-0.3c8.4-1.5,9.6-7.5,10.6-11.6
			c1.5-6.3,21.8-193.1,22.9-205c0.1-8.2-9.7-5.3-15-5.4c-10.3,1.6-83,5.4-109,5.7c-28,0.3-107.5-3.2-119.2-4.8
			C302.6,246.3,295.4,247,295.6,259.1z M428.6,493.5c-21.1,0.4-60.2-1.8-95.2-9.5c-0.1,4,3.2,33,4.2,43.6
			c11.3,1.7,22.6,3.2,33.9,4.7c46.5,4.3,93.5,2.6,139.6-5c0.4-14.4,2.7-28.7,3.6-43.1C495.9,487.6,444.9,493.2,428.6,493.5z"/>
	</g>
</g>
</svg>
